<svg data-v-0dd9719b="" version="1.0" xmlns="http://www.w3.org/2000/svg" xmlns:xlink="http://www.w3.org/1999/xlink" width="100%" height="100%" viewBox="30 40 450 180" preserveAspectRatio="xMidYMid meet" color-interpolation-filters="sRGB" style="margin: auto;">
	<rect data-v-0dd9719b="" x="0" y="0" fill="#000000" fill-opacity="0" class="background" width="100%" height="70%">
	</rect>
	<!--  -->
	<g data-v-0dd9719b="" fill="#FFFFFF" class="icon-text-wrapper icon-svg-group iconsvg" transform="translate(48.11499786376953,86.37007522583008)">
		<g class="iconsvg-imagesvg" transform="translate(0,0)" mask="url(#d3a10c23-98fc-4aae-b495-74806f82f8b1)">
			<g>
				<rect fill="#FFFFFF" fill-opacity="0" stroke-width="2" x="0" y="0" width="60" height="77.25985063095546" class="image-rect">
				</rect>
				<svg filter="url(#colors6423791017)" x="0" y="0" width="60" height="77.25985063095546" filtersec="colorsf5716539782" class="image-svg-svg primary" style="overflow: visible;">
					<svg xmlns="http://www.w3.org/2000/svg" data-name="Layer 1" viewBox="11.887439727783203 1.498147964477539 72.22642517089844 93.00370025634766" x="0px" y="0px">
						<path d="M56.806,42.616v2.015H72.143a1.267,1.267,0,1,1,0,2.533H56.806v1.672H72.143a1.267,1.267,0,1,1,0,2.533H56.806v2.015H78.9a1.267,1.267,0,0,1,1.267,1.267v2.486a4.4,4.4,0,1,1-2.534,0v-1.22H56.806v.866A1.266,1.266,0,0,1,55.54,58.05a10.05,10.05,0,1,1,0-20.1,1.266,1.266,0,0,1,1.266,1.267v.866H77.631v-1.22a4.4,4.4,0,1,1,2.534,0v2.486A1.267,1.267,0,0,1,78.9,42.616ZM81,85.931V82.679a1.266,1.266,0,0,0-1.267-1.266H56.806V77.605H69.479a4.379,4.379,0,1,0,0-2.533H56.806V72.517h9.385a1.267,1.267,0,0,0,1.267-1.267V69.016a4.4,4.4,0,1,0-2.533,0v.967H56.806V66.812a1.266,1.266,0,0,0-1.266-1.266,17.546,17.546,0,1,1,0-35.092,1.266,1.266,0,0,0,1.266-1.266V26.017h8.119v.967a4.4,4.4,0,1,0,2.533,0V24.75a1.267,1.267,0,0,0-1.267-1.267H56.806V20.928H69.479a4.379,4.379,0,1,0,0-2.533H56.806V14.587H79.734A1.266,1.266,0,0,0,81,13.321V10.069a4.379,4.379,0,1,0-2.533,0v1.985H56.806V9.287h12.84a1.267,1.267,0,0,0,0-2.534H56.806V5.609A1.266,1.266,0,0,0,55.54,4.343h0a43.971,43.971,0,0,0-8.607.85,1.267,1.267,0,0,0-1.018,1.242v9.946a32.933,32.933,0,0,0-5.923,2.455l-7.031-7.031a1.266,1.266,0,0,0-1.6-.158A43.626,43.626,0,0,0,19.186,23.821a1.266,1.266,0,0,0,.158,1.6l7.032,7.032a32.885,32.885,0,0,0-2.456,5.922H13.974a1.267,1.267,0,0,0-1.242,1.018,44.3,44.3,0,0,0,0,17.218,1.267,1.267,0,0,0,1.242,1.018H23.92a32.885,32.885,0,0,0,2.456,5.922l-7.032,7.032a1.266,1.266,0,0,0-.158,1.6A43.639,43.639,0,0,0,31.361,84.353a1.266,1.266,0,0,0,1.6-.158l7.031-7.031a32.933,32.933,0,0,0,5.923,2.455v9.946a1.267,1.267,0,0,0,1.017,1.242,43.971,43.971,0,0,0,8.607.85h0a1.266,1.266,0,0,0,1.266-1.266V89.247h12.84a1.267,1.267,0,1,0,0-2.533H56.806V83.946H78.468v1.985a4.379,4.379,0,1,0,2.533,0Z">
						</path>
					</svg>
				</svg>
				<defs>
					<filter id="colors6423791017">
						<feColorMatrix type="matrix" values="0 0 0 0 0.5078125  0 0 0 0 0.296875  0 0 0 0 0.9921875  0 0 0 1 0" class="icon-fecolormatrix">
						</feColorMatrix>
					</filter>
					<filter id="colorsf5716539782">
						<feColorMatrix type="matrix" values="0 0 0 0 0.99609375  0 0 0 0 0.99609375  0 0 0 0 0.99609375  0 0 0 1 0" class="icon-fecolormatrix">
						</feColorMatrix>
					</filter>
					<filter id="colorsb4587882043">
						<feColorMatrix type="matrix" values="0 0 0 0 0  0 0 0 0 0  0 0 0 0 0  0 0 0 1 0" class="icon-fecolormatrix">
						</feColorMatrix>
					</filter>
				</defs>
			</g>
			<rect v-gra="id" width="72" height="89.25984954833984" transform="translate(-6, -6)" style="pointer-events:none;" fill="url(#PQyewjAkmRae4SA2Y1rfc)">
			</rect>
		</g>
		<g transform="translate(67,18.761924743652344)">
			<g data-gra="path-name" fill-rule="" class="tp-name iconsvg-namesvg" transform="translate(0,0)">
				<g transform="scale(1)">
					<g>
						<path d="M14.05 0.51Q10.31 0.51 7.43-1 4.55-2.51 2.95-5.31 1.36-8.11 1.36-11.84L1.36-11.84Q1.36-15.57 2.95-18.37 4.55-21.17 7.43-22.7 10.31-24.23 14.05-24.23L14.05-24.23Q18.97-24.23 22.26-21.89L22.26-21.89 22.26-17.78Q19.31-20.29 14.42-20.29L14.42-20.29Q11.81-20.29 9.84-19.26 7.87-18.22 6.79-16.32 5.7-14.42 5.7-11.84L5.7-11.84Q5.7-9.26 6.8-7.36 7.91-5.46 9.87-4.43 11.84-3.39 14.42-3.39L14.42-3.39Q16.93-3.39 18.9-4.02 20.87-4.65 22.53-6.04L22.53-6.04 22.53-1.93Q19.41 0.51 14.05 0.51L14.05 0.51ZM33.93 0.51Q31.08 0.51 28.93-0.53 26.77-1.56 25.58-3.51 24.4-5.46 24.4-8.14L24.4-8.14Q24.4-10.76 25.57-12.71 26.74-14.66 28.91-15.73 31.08-16.8 33.93-16.8L33.93-16.8Q36.78-16.8 38.93-15.73 41.09-14.66 42.28-12.71 43.46-10.76 43.46-8.14L43.46-8.14Q43.46-5.46 42.28-3.51 41.09-1.56 38.93-0.53 36.78 0.51 33.93 0.51L33.93 0.51ZM33.93-2.85Q36.27-2.85 37.66-4.33 39.05-5.8 39.05-8.14L39.05-8.14Q39.05-10.62 37.68-12.03 36.31-13.44 33.93-13.44L33.93-13.44Q31.56-13.44 30.18-12.03 28.81-10.62 28.81-8.14L28.81-8.14Q28.81-5.8 30.2-4.33 31.59-2.85 33.93-2.85L33.93-2.85ZM54.25 0.51Q51.78 0.51 49.83-0.56 47.88-1.63 46.77-3.58 45.67-5.53 45.67-8.11L45.67-8.11Q45.67-10.65 46.77-12.62 47.88-14.59 49.83-15.69 51.78-16.8 54.25-16.8L54.25-16.8Q58.26-16.8 60.57-14.69L60.57-14.69 60.57-25.07 64.84-25.07 64.84 0 60.7 0 60.7-1.9Q59.31-0.61 57.82-0.05 56.32 0.51 54.25 0.51L54.25 0.51ZM55.31-2.85Q57.14-2.85 58.56-3.83 59.99-4.82 60.57-6.48L60.57-6.48 60.57-9.77Q60.02-11.43 58.58-12.44 57.14-13.44 55.31-13.44L55.31-13.44Q53-13.44 51.51-11.94 50.01-10.45 50.01-8.11L50.01-8.11Q50.01-5.77 51.51-4.31 53-2.85 55.31-2.85L55.31-2.85ZM78.07 0.51Q73.53 0.51 70.88-1.76 68.23-4.04 68.23-8.11L68.23-8.11Q68.23-12.11 70.57-14.45 72.92-16.8 77.26-16.8L77.26-16.8Q80.11-16.8 82.13-15.71 84.15-14.62 85.16-12.74 86.18-10.86 86.18-8.45L86.18-8.45 86.18-6.48 72.31-6.48Q72.75-2.85 78.62-2.85L78.62-2.85Q80.18-2.85 81.81-3.12 83.43-3.39 84.66-3.87L84.66-3.87 84.66-0.58Q83.5-0.1 81.69 0.2 79.87 0.51 78.07 0.51L78.07 0.51ZM72.31-9.4L82.15-9.4Q82.08-11.33 80.77-12.38 79.46-13.44 77.19-13.44L77.19-13.44Q74.95-13.44 73.66-12.35 72.37-11.26 72.31-9.4L72.31-9.4ZM89.58 0L89.58-23.72 99.48-23.72Q103.42-23.72 105.56-21.78 107.69-19.85 107.69-16.18L107.69-16.18Q107.69-13.57 106.41-11.74 105.12-9.91 102.74-9.13L102.74-9.13 107.56 0 103.15 0 98.57-8.69 93.89-8.69 93.89 0 89.58 0ZM93.89-12.25L98.7-12.25Q100.81-12.25 102.1-13.23 103.39-14.22 103.39-16.18L103.39-16.18Q103.39-20.15 98.7-20.15L98.7-20.15 93.89-20.15 93.89-12.25ZM118.59 0.51Q115.74 0.51 113.58-0.53 111.43-1.56 110.24-3.51 109.05-5.46 109.05-8.14L109.05-8.14Q109.05-10.76 110.22-12.71 111.39-14.66 113.56-15.73 115.74-16.8 118.59-16.8L118.59-16.8Q121.44-16.8 123.59-15.73 125.75-14.66 126.93-12.71 128.12-10.76 128.12-8.14L128.12-8.14Q128.12-5.46 126.93-3.51 125.75-1.56 123.59-0.53 121.44 0.51 118.59 0.51L118.59 0.51ZM118.59-2.85Q120.93-2.85 122.32-4.33 123.71-5.8 123.71-8.14L123.71-8.14Q123.71-10.62 122.34-12.03 120.96-13.44 118.59-13.44L118.59-13.44Q116.21-13.44 114.84-12.03 113.46-10.62 113.46-8.14L113.46-8.14Q113.46-5.8 114.85-4.33 116.25-2.85 118.59-2.85L118.59-2.85ZM139.52 0.51Q136.67 0.51 134.52-0.53 132.36-1.56 131.17-3.51 129.99-5.46 129.99-8.14L129.99-8.14Q129.99-10.76 131.16-12.71 132.33-14.66 134.5-15.73 136.67-16.8 139.52-16.8L139.52-16.8Q142.37-16.8 144.53-15.73 146.68-14.66 147.87-12.71 149.06-10.76 149.06-8.14L149.06-8.14Q149.06-5.46 147.87-3.51 146.68-1.56 144.53-0.53 142.37 0.51 139.52 0.51L139.52 0.51ZM139.52-2.85Q141.86-2.85 143.25-4.33 144.64-5.8 144.64-8.14L144.64-8.14Q144.64-10.62 143.27-12.03 141.9-13.44 139.52-13.44L139.52-13.44Q137.15-13.44 135.77-12.03 134.4-10.62 134.4-8.14L134.4-8.14Q134.4-5.8 135.79-4.33 137.18-2.85 139.52-2.85L139.52-2.85ZM152.45 0L152.45-16.29 156.45-16.29 156.45-14.15Q157.54-15.44 159-16.12 160.46-16.8 161.95-16.8L161.95-16.8Q163.85-16.8 165-16.17 166.16-15.54 166.73-14.28L166.73-14.28Q167.82-15.51 169.36-16.15 170.91-16.8 172.43-16.8L172.43-16.8Q175.49-16.8 176.81-15.27 178.13-13.74 178.13-10.79L178.13-10.79 178.13 0 174.03 0 174.03-10.21Q174.03-11.94 173.33-12.69 172.64-13.44 171.11-13.44L171.11-13.44Q170.02-13.44 169.13-13.01 168.23-12.59 167.48-11.57L167.48-11.57Q167.55-10.48 167.55-9.81L167.55-9.81 167.55 0 163.41 0 163.41-10.28Q163.41-12.05 162.83-12.74 162.25-13.44 160.73-13.44L160.73-13.44Q158.42-13.44 156.59-10.82L156.59-10.82 156.59 0 152.45 0Z" transform="translate(-1.3600000143051147, 25.06999969482422)">
						</path>
					</g>
					<!--  -->
					<!--  -->
					<!--  -->
					<!--  -->
					<!--  -->
					<!--  -->
					<!--  -->
				</g>
			</g>
			<g data-gra="path-slogan" fill-rule="" class="tp-slogan iconsvg-slogansvg" fill="#FFFFFF" transform="translate(5.415000915527344,31.579999923706055)">
				<!--  -->
				<!--  -->
				<g transform="scale(1, 1)">
					<g transform="scale(1)">
						<path d="M0.62-3.94C0.62-3.30 0.71-2.72 0.88-2.21C1.05-1.71 1.29-1.28 1.60-0.93C1.91-0.58 2.27-0.32 2.69-0.13C3.11 0.05 3.57 0.14 4.07 0.14C4.57 0.14 5.02 0.04 5.41-0.16C5.80-0.36 6.16-0.64 6.47-1.00L5.90-1.61C5.65-1.33 5.38-1.11 5.09-0.96C4.81-0.81 4.48-0.73 4.09-0.73C3.72-0.73 3.38-0.81 3.08-0.96C2.78-1.11 2.52-1.33 2.32-1.61C2.11-1.89 1.95-2.23 1.83-2.62C1.71-3.02 1.66-3.46 1.66-3.96C1.66-4.45 1.72-4.89 1.84-5.28C1.96-5.67 2.12-6.01 2.34-6.28C2.56-6.56 2.82-6.77 3.12-6.92C3.42-7.07 3.76-7.14 4.14-7.14C4.48-7.14 4.77-7.07 5.02-6.94C5.27-6.81 5.50-6.63 5.71-6.41L6.28-7.04C6.04-7.30 5.75-7.53 5.39-7.72C5.03-7.92 4.61-8.02 4.13-8.02C3.62-8.02 3.16-7.92 2.73-7.73C2.30-7.55 1.93-7.28 1.62-6.92C1.31-6.57 1.06-6.14 0.89-5.64C0.71-5.14 0.62-4.57 0.62-3.94ZM10.49 0.14C10.98 0.14 11.44 0.05 11.85-0.14C12.26-0.34 12.62-0.61 12.92-0.97C13.22-1.32 13.45-1.75 13.61-2.26C13.78-2.77 13.86-3.34 13.86-3.97C13.86-4.60 13.78-5.16 13.61-5.66C13.45-6.16 13.22-6.58 12.92-6.93C12.62-7.28 12.26-7.55 11.85-7.73C11.44-7.92 10.98-8.02 10.49-8.02C9.99-8.02 9.54-7.92 9.13-7.74C8.71-7.56 8.36-7.29 8.06-6.94C7.77-6.59 7.54-6.17 7.37-5.67C7.21-5.17 7.13-4.60 7.13-3.97C7.13-3.34 7.21-2.77 7.37-2.26C7.54-1.75 7.77-1.32 8.06-0.97C8.36-0.61 8.71-0.34 9.13-0.14C9.54 0.05 9.99 0.14 10.49 0.14ZM10.49-0.73C10.14-0.73 9.82-0.81 9.53-0.96C9.25-1.11 9.01-1.33 8.80-1.61C8.60-1.90 8.44-2.24 8.33-2.63C8.22-3.03 8.16-3.48 8.16-3.97C8.16-4.46 8.22-4.90 8.33-5.29C8.44-5.68 8.60-6.02 8.80-6.29C9.01-6.56 9.25-6.77 9.53-6.92C9.82-7.07 10.14-7.14 10.49-7.14C10.84-7.14 11.16-7.07 11.44-6.92C11.73-6.77 11.97-6.56 12.17-6.29C12.38-6.02 12.54-5.68 12.65-5.29C12.76-4.90 12.82-4.46 12.82-3.97C12.82-3.48 12.76-3.03 12.65-2.63C12.54-2.24 12.38-1.90 12.17-1.61C11.97-1.33 11.73-1.11 11.44-0.96C11.16-0.81 10.84-0.73 10.49-0.73ZM15.55-7.87L15.55 0L17.57 0C18.16 0 18.68-0.09 19.14-0.27C19.60-0.45 19.98-0.71 20.29-1.05C20.60-1.39 20.84-1.81 21-2.30C21.16-2.79 21.24-3.35 21.24-3.97C21.24-5.23 20.92-6.19 20.29-6.86C19.66-7.54 18.74-7.87 17.52-7.87ZM17.45-0.82L16.55-0.82L16.55-7.06L17.45-7.06C18.37-7.06 19.06-6.79 19.52-6.26C19.98-5.74 20.21-4.97 20.21-3.97C20.21-2.97 19.98-2.20 19.52-1.64C19.06-1.09 18.37-0.82 17.45-0.82ZM22.93-7.87L22.93 0L27.59 0L27.59-0.85L23.93-0.85L23.93-3.71L26.92-3.71L26.92-4.56L23.93-4.56L23.93-7.03L27.47-7.03L27.47-7.87ZM32.95-3.05L32.95 0L33.96 0L33.96-3.05L36.32-7.87L35.28-7.87L34.27-5.65C34.15-5.36 34.02-5.08 33.89-4.80C33.75-4.52 33.62-4.23 33.48-3.94L33.43-3.94C33.30-4.23 33.17-4.52 33.05-4.80C32.93-5.08 32.80-5.36 32.68-5.65L31.66-7.87L30.59-7.87ZM40.13 0.14C40.62 0.14 41.08 0.05 41.49-0.14C41.90-0.34 42.26-0.61 42.56-0.97C42.86-1.32 43.09-1.75 43.25-2.26C43.42-2.77 43.50-3.34 43.50-3.97C43.50-4.60 43.42-5.16 43.25-5.66C43.09-6.16 42.86-6.58 42.56-6.93C42.26-7.28 41.90-7.55 41.49-7.73C41.08-7.92 40.62-8.02 40.13-8.02C39.63-8.02 39.18-7.92 38.77-7.74C38.35-7.56 38.00-7.29 37.70-6.94C37.41-6.59 37.18-6.17 37.01-5.67C36.85-5.17 36.77-4.60 36.77-3.97C36.77-3.34 36.85-2.77 37.01-2.26C37.18-1.75 37.41-1.32 37.70-0.97C38.00-0.61 38.35-0.34 38.77-0.14C39.18 0.05 39.63 0.14 40.13 0.14ZM40.13-0.73C39.78-0.73 39.46-0.81 39.17-0.96C38.89-1.11 38.65-1.33 38.44-1.61C38.24-1.90 38.08-2.24 37.97-2.63C37.86-3.03 37.80-3.48 37.80-3.97C37.80-4.46 37.86-4.90 37.97-5.29C38.08-5.68 38.24-6.02 38.44-6.29C38.65-6.56 38.89-6.77 39.17-6.92C39.46-7.07 39.78-7.14 40.13-7.14C40.48-7.14 40.80-7.07 41.08-6.92C41.37-6.77 41.61-6.56 41.81-6.29C42.02-6.02 42.18-5.68 42.29-5.29C42.40-4.90 42.46-4.46 42.46-3.97C42.46-3.48 42.40-3.03 42.29-2.63C42.18-2.24 42.02-1.90 41.81-1.61C41.61-1.33 41.37-1.11 41.08-0.96C40.80-0.81 40.48-0.73 40.13-0.73ZM45.16-7.87L45.16-3.25C45.16-2.62 45.23-2.09 45.37-1.66C45.52-1.22 45.71-0.87 45.97-0.61C46.22-0.34 46.52-0.15 46.87-0.03C47.21 0.09 47.59 0.14 47.99 0.14C48.39 0.14 48.76 0.09 49.10-0.03C49.45-0.15 49.75-0.34 50.00-0.61C50.25-0.87 50.45-1.22 50.59-1.66C50.74-2.09 50.81-2.62 50.81-3.25L50.81-7.87L49.85-7.87L49.85-3.23C49.85-2.76 49.80-2.36 49.70-2.04C49.61-1.72 49.48-1.46 49.31-1.27C49.14-1.08 48.94-0.94 48.72-0.86C48.50-0.77 48.25-0.73 47.99-0.73C47.73-0.73 47.49-0.77 47.27-0.86C47.04-0.94 46.85-1.08 46.69-1.27C46.52-1.46 46.39-1.72 46.30-2.04C46.20-2.36 46.15-2.76 46.15-3.23L46.15-7.87ZM53.93-4.14L53.93-7.07L55.25-7.07C55.86-7.07 56.34-6.96 56.66-6.76C56.99-6.55 57.16-6.18 57.16-5.66C57.16-5.15 56.99-4.77 56.66-4.52C56.34-4.27 55.86-4.14 55.25-4.14ZM57.25 0L58.38 0L56.39-3.43C56.92-3.57 57.35-3.82 57.67-4.19C57.99-4.56 58.15-5.05 58.15-5.66C58.15-6.07 58.08-6.42 57.95-6.70C57.81-6.98 57.62-7.20 57.38-7.38C57.13-7.56 56.84-7.68 56.50-7.76C56.16-7.83 55.79-7.87 55.39-7.87L52.93-7.87L52.93 0L53.93 0L53.93-3.32L55.36-3.32ZM61.25-7.87L63.77 0L64.93 0L67.43-7.87L66.41-7.87L65.15-3.62C65.01-3.15 64.89-2.72 64.78-2.32C64.66-1.92 64.54-1.48 64.39-1.02L64.34-1.02C64.19-1.48 64.06-1.92 63.95-2.32C63.85-2.72 63.72-3.15 63.58-3.62L62.32-7.87ZM68.51-7.87L68.51 0L69.50 0L69.50-7.87ZM71.69-1.72L71.09-1.02C71.43-0.66 71.84-0.38 72.31-0.17C72.78 0.04 73.30 0.14 73.85 0.14C74.26 0.14 74.64 0.09 74.96-0.03C75.29-0.15 75.57-0.31 75.80-0.51C76.04-0.71 76.21-0.95 76.34-1.22C76.46-1.50 76.52-1.79 76.52-2.10C76.52-2.39 76.48-2.64 76.40-2.86C76.31-3.08 76.20-3.27 76.06-3.44C75.91-3.60 75.74-3.75 75.54-3.87C75.34-3.99 75.13-4.10 74.90-4.20L73.79-4.68C73.63-4.74 73.47-4.81 73.32-4.89C73.17-4.97 73.03-5.05 72.90-5.15C72.77-5.25 72.67-5.37 72.59-5.50C72.52-5.63 72.48-5.80 72.48-5.99C72.48-6.35 72.61-6.63 72.88-6.83C73.15-7.04 73.50-7.14 73.94-7.14C74.31-7.14 74.64-7.07 74.93-6.94C75.23-6.81 75.49-6.63 75.73-6.40L76.27-7.04C75.99-7.33 75.65-7.57 75.25-7.75C74.85-7.93 74.42-8.02 73.94-8.02C73.58-8.02 73.25-7.96 72.95-7.86C72.65-7.76 72.39-7.61 72.17-7.42C71.95-7.23 71.78-7.01 71.66-6.76C71.53-6.50 71.47-6.22 71.47-5.93C71.47-5.64 71.52-5.39 71.62-5.17C71.71-4.95 71.84-4.76 71.99-4.60C72.14-4.44 72.31-4.30 72.50-4.19C72.70-4.08 72.88-3.98 73.07-3.90L74.20-3.41C74.38-3.32 74.55-3.24 74.71-3.16C74.87-3.08 75.01-2.99 75.13-2.89C75.24-2.79 75.33-2.67 75.40-2.53C75.47-2.39 75.50-2.22 75.50-2.02C75.50-1.63 75.36-1.32 75.07-1.09C74.78-0.85 74.38-0.73 73.86-0.73C73.45-0.73 73.06-0.82 72.68-1.00C72.30-1.18 71.97-1.42 71.69-1.72ZM78.07-7.87L78.07 0L79.07 0L79.07-7.87ZM84.13 0.14C84.63 0.14 85.08 0.05 85.49-0.14C85.91-0.34 86.26-0.61 86.56-0.97C86.86-1.32 87.09-1.75 87.26-2.26C87.42-2.77 87.50-3.34 87.50-3.97C87.50-4.60 87.42-5.16 87.26-5.66C87.09-6.16 86.86-6.58 86.56-6.93C86.26-7.28 85.91-7.55 85.49-7.73C85.08-7.92 84.63-8.02 84.13-8.02C83.64-8.02 83.18-7.92 82.77-7.74C82.36-7.56 82.00-7.29 81.71-6.94C81.41-6.59 81.18-6.17 81.02-5.67C80.85-5.17 80.77-4.60 80.77-3.97C80.77-3.34 80.85-2.77 81.02-2.26C81.18-1.75 81.41-1.32 81.71-0.97C82.00-0.61 82.36-0.34 82.77-0.14C83.18 0.05 83.64 0.14 84.13 0.14ZM84.13-0.73C83.78-0.73 83.46-0.81 83.18-0.96C82.89-1.11 82.65-1.33 82.45-1.61C82.24-1.90 82.08-2.24 81.97-2.63C81.86-3.03 81.80-3.48 81.80-3.97C81.80-4.46 81.86-4.90 81.97-5.29C82.08-5.68 82.24-6.02 82.45-6.29C82.65-6.56 82.89-6.77 83.18-6.92C83.46-7.07 83.78-7.14 84.13-7.14C84.48-7.14 84.80-7.07 85.09-6.92C85.37-6.77 85.61-6.56 85.82-6.29C86.02-6.02 86.18-5.68 86.29-5.29C86.40-4.90 86.46-4.46 86.46-3.97C86.46-3.48 86.40-3.03 86.29-2.63C86.18-2.24 86.02-1.90 85.82-1.61C85.61-1.33 85.37-1.11 85.09-0.96C84.80-0.81 84.48-0.73 84.13-0.73ZM89.20-7.87L89.20 0L90.14 0L90.14-4.12C90.14-4.53 90.13-4.95 90.10-5.36C90.07-5.77 90.04-6.18 90.01-6.58L90.06-6.58L90.91-4.96L93.77 0L94.80 0L94.80-7.87L93.85-7.87L93.85-3.80C93.85-3.39 93.87-2.97 93.89-2.54C93.92-2.11 93.95-1.70 93.97-1.30L93.92-1.30L93.07-2.93L90.23-7.87ZM99.38-7.87L99.38 0L100.38 0L100.38-7.87ZM102.54-7.87L102.54 0L103.49 0L103.49-4.12C103.49-4.53 103.47-4.95 103.45-5.36C103.42-5.77 103.39-6.18 103.36-6.58L103.40-6.58L104.26-4.96L107.11 0L108.14 0L108.14-7.87L107.20-7.87L107.20-3.80C107.20-3.39 107.21-2.97 107.24-2.54C107.27-2.11 107.29-1.70 107.32-1.30L107.27-1.30L106.42-2.93L103.57-7.87ZM111.94-7.03L111.94 0L112.94 0L112.94-7.03L115.32-7.03L115.32-7.87L109.56-7.87L109.56-7.03ZM119.35 0.14C119.85 0.14 120.30 0.05 120.71-0.14C121.13-0.34 121.48-0.61 121.78-0.97C122.08-1.32 122.31-1.75 122.48-2.26C122.64-2.77 122.72-3.34 122.72-3.97C122.72-4.60 122.64-5.16 122.48-5.66C122.31-6.16 122.08-6.58 121.78-6.93C121.48-7.28 121.13-7.55 120.71-7.73C120.30-7.92 119.85-8.02 119.35-8.02C118.86-8.02 118.40-7.92 117.99-7.74C117.58-7.56 117.22-7.29 116.93-6.94C116.63-6.59 116.40-6.17 116.24-5.67C116.07-5.17 115.99-4.60 115.99-3.97C115.99-3.34 116.07-2.77 116.24-2.26C116.40-1.75 116.63-1.32 116.93-0.97C117.22-0.61 117.58-0.34 117.99-0.14C118.40 0.05 118.86 0.14 119.35 0.14ZM119.35-0.73C119.00-0.73 118.68-0.81 118.40-0.96C118.11-1.11 117.87-1.33 117.67-1.61C117.46-1.90 117.30-2.24 117.19-2.63C117.08-3.03 117.02-3.48 117.02-3.97C117.02-4.46 117.08-4.90 117.19-5.29C117.30-5.68 117.46-6.02 117.67-6.29C117.87-6.56 118.11-6.77 118.40-6.92C118.68-7.07 119.00-7.14 119.35-7.14C119.70-7.14 120.02-7.07 120.31-6.92C120.59-6.77 120.83-6.56 121.04-6.29C121.24-6.02 121.40-5.68 121.51-5.29C121.62-4.90 121.68-4.46 121.68-3.97C121.68-3.48 121.62-3.03 121.51-2.63C121.40-2.24 121.24-1.90 121.04-1.61C120.83-1.33 120.59-1.11 120.31-0.96C120.02-0.81 119.70-0.73 119.35-0.73ZM127.84-4.14L127.84-7.07L129.16-7.07C129.77-7.07 130.24-6.96 130.57-6.76C130.90-6.55 131.06-6.18 131.06-5.66C131.06-5.15 130.90-4.77 130.57-4.52C130.24-4.27 129.77-4.14 129.16-4.14ZM131.16 0L132.29 0L130.30-3.43C130.83-3.57 131.26-3.82 131.58-4.19C131.90-4.56 132.06-5.05 132.06-5.66C132.06-6.07 131.99-6.42 131.86-6.70C131.72-6.98 131.53-7.20 131.29-7.38C131.04-7.56 130.75-7.68 130.41-7.76C130.07-7.83 129.70-7.87 129.30-7.87L126.84-7.87L126.84 0L127.84 0L127.84-3.32L129.26-3.32ZM133.81-7.87L133.81 0L138.47 0L138.47-0.85L134.81-0.85L134.81-3.71L137.80-3.71L137.80-4.56L134.81-4.56L134.81-7.03L138.35-7.03L138.35-7.87ZM143.48-3.20L141.12-3.20L141.49-4.40C141.64-4.84 141.77-5.28 141.90-5.72C142.03-6.15 142.15-6.60 142.27-7.06L142.32-7.06C142.45-6.60 142.58-6.15 142.70-5.72C142.83-5.28 142.97-4.84 143.11-4.40ZM143.74-2.40L144.48 0L145.55 0L142.88-7.87L141.76-7.87L139.09 0L140.11 0L140.87-2.40ZM146.66-7.87L146.66 0L151.10 0L151.10-0.85L147.66-0.85L147.66-7.87ZM152.50-7.87L152.50 0L153.49 0L153.49-7.87ZM157.28-7.03L157.28 0L158.29 0L158.29-7.03L160.67-7.03L160.67-7.87L154.91-7.87L154.91-7.03ZM163.19-3.05L163.19 0L164.20 0L164.20-3.05L166.56-7.87L165.52-7.87L164.51-5.65C164.39-5.36 164.26-5.08 164.12-4.80C163.99-4.52 163.85-4.23 163.72-3.94L163.67-3.94C163.53-4.23 163.40-4.52 163.28-4.80C163.16-5.08 163.04-5.36 162.91-5.65L161.89-7.87L160.82-7.87Z" transform="translate(-0.624, 8.016)">
						</path>
					</g>
				</g>
			</g>
		</g>
	</g>
</svg>
